ffmpeg started on 2025-07-16 at 17:33:05
Report written to "D:\Convert\FFMetrics\reports\psnr_report-6.txt"
Log level: 32
Command line:
ffmpeg -hide_banner -nostdin -i "G:\\\xc0\xed\xe8\xec\xe5\\Shiza\\\xcb\xe5\xe3\xe5\xed\xe4\xe0 \xee \xc3\xf0\xe0\xed\xea\xf0\xe5\xf1\xf2\xe5\\[SHIZA Project] Grancrest Senki TV [21] [nDrOiDze & Lizaveta]_HEVC.mkv" -i "G:\\\xc0\xed\xe8\xec\xe5\\Shiza\\\xcb\xe5\xe3\xe5\xed\xe4\xe0 \xee \xc3\xf0\xe0\xed\xea\xf0\xe5\xf1\xf2\xe5\\[SHIZA Project] Grancrest Senki TV [21] [nDrOiDze & Lizaveta].mkv" -lavfi "[0:v]settb=AVTB,setpts=PTS-STARTPTS,format=pix_fmts=yuv420p10,fps=24000/1001,scale=1280:720:flags=bicubic[main];[1:v]settb=AVTB,setpts=PTS-STARTPTS,format=pix_fmts=yuv420p,fps=24000/1001,scale=1280:720:flags=bicubic[ref];[main][ref]psnr=eof_action=endall:stats_file='D\\:/Convert/FFMetrics/logs/psnr_logfile-6.txt'" -f null -
Input #0, matroska,webm, from 'G:\Аниме\Shiza\Легенда о Гранкресте\[SHIZA Project] Grancrest Senki TV [21] [nDrOiDze & Lizaveta]_HEVC.mkv':
  Metadata:
    ENCODER         : Lavf61.7.100
  Duration: 00:23:41.18, start: -0.021000, bitrate: 545 kb/s
  Stream #0:0(jpn): Video: hevc (Main 10), yuv420p10le(tv, bt709, progressive), 1280x720 [SAR 1:1 DAR 16:9], 23.81 fps, 23.81 tbr, 1k tbn (default)
      Metadata:
        title           : [SHIZA Project] Grancrest Senki TV [WEBRip]
        ENCODER         : Lavc61.19.100 libx265
        BPS             : 347460
        DURATION        : 00:23:40.146000000
        NUMBER_OF_FRAMES: 34050
        NUMBER_OF_BYTES : 61680635
        _STATISTICS_WRITING_APP: mkvpropedit v66.0.0 ('Josie') 64-bit
        _STATISTICS_WRITING_DATE_UTC: 2025-07-16 11:25:23
        _STATISTICS_TAGS: BPS DURATION NUMBER_OF_FRAMES NUMBER_OF_BYTES
  Stream #0:1(rus): Audio: aac (LC), 48000 Hz, stereo, fltp (default)
      Metadata:
        title           : nDrOiDze & Lizaveta
        ENCODER         : Lavc61.19.100 aac
        BPS             : 194022
        DURATION        : 00:23:41.162000000
        NUMBER_OF_FRAMES: 66618
        NUMBER_OF_BYTES : 34467195
        _STATISTICS_WRITING_APP: mkvpropedit v66.0.0 ('Josie') 64-bit
        _STATISTICS_WRITING_DATE_UTC: 2025-07-16 11:25:23
        _STATISTICS_TAGS: BPS DURATION NUMBER_OF_FRAMES NUMBER_OF_BYTES
Input #1, matroska,webm, from 'G:\Аниме\Shiza\Легенда о Гранкресте\[SHIZA Project] Grancrest Senki TV [21] [nDrOiDze & Lizaveta].mkv':
  Metadata:
    encoder         : libebml v1.3.4 + libmatroska v1.4.5
    creation_time   : 2018-06-06T16:37:49.000000Z
  Duration: 00:23:41.16, start: 0.000000, bitrate: 1968 kb/s
  Stream #1:0(jpn): Video: h264 (High), yuv420p(progressive), 1280x720 [SAR 1:1 DAR 16:9], 23.81 fps, 23.81 tbr, 1k tbn (default)
      Metadata:
        title           : [SHIZA Project] Grancrest Senki TV [WEBRip]
        BPS             : 1772673
        BPS-eng         : 1772673
        DURATION        : 00:23:40.128000000
        DURATION-eng    : 00:23:40.128000000
        NUMBER_OF_FRAMES: 34050
        NUMBER_OF_FRAMES-eng: 34050
        NUMBER_OF_BYTES : 314677882
        NUMBER_OF_BYTES-eng: 314677882
        _STATISTICS_WRITING_APP: mkvmerge v10.0.0 ('To Drown In You') 64bit
        _STATISTICS_WRITING_APP-eng: mkvmerge v10.0.0 ('To Drown In You') 64bit
        _STATISTICS_WRITING_DATE_UTC: 2018-06-06 16:37:49
        _STATISTICS_WRITING_DATE_UTC-eng: 2018-06-06 16:37:49
        _STATISTICS_TAGS: BPS DURATION NUMBER_OF_FRAMES NUMBER_OF_BYTES
        _STATISTICS_TAGS-eng: BPS DURATION NUMBER_OF_FRAMES NUMBER_OF_BYTES
  Stream #1:1(rus): Audio: aac (LC), 48000 Hz, stereo, fltp (default)
      Metadata:
        title           : nDrOiDze & Lizaveta
        BPS             : 193355
        BPS-eng         : 193355
        DURATION        : 00:23:41.162000000
        DURATION-eng    : 00:23:41.162000000
        NUMBER_OF_FRAMES: 66617
        NUMBER_OF_FRAMES-eng: 66617
        NUMBER_OF_BYTES : 34348772
        NUMBER_OF_BYTES-eng: 34348772
        _STATISTICS_WRITING_APP: mkvmerge v10.0.0 ('To Drown In You') 64bit
        _STATISTICS_WRITING_APP-eng: mkvmerge v10.0.0 ('To Drown In You') 64bit
        _STATISTICS_WRITING_DATE_UTC: 2018-06-06 16:37:49
        _STATISTICS_WRITING_DATE_UTC-eng: 2018-06-06 16:37:49
        _STATISTICS_TAGS: BPS DURATION NUMBER_OF_FRAMES NUMBER_OF_BYTES
        _STATISTICS_TAGS-eng: BPS DURATION NUMBER_OF_FRAMES NUMBER_OF_BYTES
  Stream #1:2: Attachment: ttf
      Metadata:
        filename        : OpenSans-Semibold.ttf
        mimetype        : application/x-truetype-font
Stream mapping:
  Stream #0:0 (hevc) -> settb:default
  Stream #1:0 (h264) -> settb:default
  psnr:default -> Stream #0:0 (wrapped_avframe)
  Stream #0:1 -> #0:1 (aac (native) -> pcm_s16le (native))
[swscaler @ 000001c557902000] No accelerated colorspace conversion found from yuv420p to bgr48le.
[swscaler @ 000001c557acaf40] No accelerated colorspace conversion found from yuv420p to bgr48le.
[swscaler @ 000001c557bf1740] No accelerated colorspace conversion found from yuv420p to bgr48le.
[swscaler @ 000001c557da0980] No accelerated colorspace conversion found from yuv420p to bgr48le.
[swscaler @ 000001c557eaed00] No accelerated colorspace conversion found from yuv420p to bgr48le.
[swscaler @ 000001c557f28d00] No accelerated colorspace conversion found from yuv420p to bgr48le.
[swscaler @ 000001c557f84040] No accelerated colorspace conversion found from yuv420p to bgr48le.
[swscaler @ 000001c557ff2bc0] No accelerated colorspace conversion found from yuv420p to bgr48le.
[swscaler @ 000001c55805b040] No accelerated colorspace conversion found from yuv420p to bgr48le.
[swscaler @ 000001c5580da040] No accelerated colorspace conversion found from yuv420p to bgr48le.
[swscaler @ 000001c558148040] No accelerated colorspace conversion found from yuv420p to bgr48le.
[swscaler @ 000001c5581a5040] No accelerated colorspace conversion found from yuv420p to bgr48le.
[swscaler @ 000001c558212040] No accelerated colorspace conversion found from yuv420p to bgr48le.
[swscaler @ 000001c55c7f2040] No accelerated colorspace conversion found from yuv420p to bgr48le.
[swscaler @ 000001c55c84e040] No accelerated colorspace conversion found from yuv420p to bgr48le.
[swscaler @ 000001c55c8c8040] No accelerated colorspace conversion found from yuv420p to bgr48le.
Output #0, null, to 'pipe:':
  Metadata:
    encoder         : Lavf61.7.100
  Stream #0:0: Video: wrapped_avframe, yuv420p10le(tv, bt709, progressive), 1280x720 [SAR 1:1 DAR 16:9], q=2-31, 200 kb/s, 23.98 fps, 23.98 tbn
      Metadata:
        encoder         : Lavc61.19.100 wrapped_avframe
  Stream #0:1(rus): Audio: pcm_s16le, 48000 Hz, stereo, s16, 1536 kb/s (default)
      Metadata:
        title           : nDrOiDze & Lizaveta
        _STATISTICS_TAGS: BPS DURATION NUMBER_OF_FRAMES NUMBER_OF_BYTES
        BPS             : 194022
        DURATION        : 00:23:41.162000000
        NUMBER_OF_FRAMES: 66618
        NUMBER_OF_BYTES : 34467195
        _STATISTICS_WRITING_APP: mkvpropedit v66.0.0 ('Josie') 64-bit
        _STATISTICS_WRITING_DATE_UTC: 2025-07-16 11:25:23
        encoder         : Lavc61.19.100 pcm_s16le
frame=   71 fps=0.0 q=-0.0 size=N/A time=00:00:02.96 bitrate=N/A speed=5.87x    frame=  169 fps=165 q=-0.0 size=N/A time=00:00:07.04 bitrate=N/A speed=6.88x    frame=  254 fps=164 q=-0.0 size=N/A time=00:00:10.59 bitrate=N/A speed=6.85x    frame=  343 fps=167 q=-0.0 size=N/A time=00:00:14.30 bitrate=N/A speed=6.96x    frame=  440 fps=171 q=-0.0 size=N/A time=00:00:18.35 bitrate=N/A speed=7.15x    frame=  530 fps=172 q=-0.0 size=N/A time=00:00:22.10 bitrate=N/A speed=7.16x    frame=  615 fps=170 q=-0.0 size=N/A time=00:00:25.65 bitrate=N/A speed= 7.1x    frame=  697 fps=169 q=-0.0 size=N/A time=00:00:29.07 bitrate=N/A speed=7.06x    frame=  785 fps=169 q=-0.0 size=N/A time=00:00:32.74 bitrate=N/A speed=7.06x    frame=  876 fps=170 q=-0.0 size=N/A time=00:00:36.53 bitrate=N/A speed= 7.1x    frame=  966 fps=170 q=-0.0 size=N/A time=00:00:40.29 bitrate=N/A speed= 7.1x    frame= 1059 fps=171 q=-0.0 size=N/A time=00:00:44.16 bitrate=N/A speed=7.14x    frame= 1152 fps=172 q=-0.0 size=N/A time=00:00:48.04 bitrate=N/A speed=7.17x    frame= 1246 fps=173 q=-0.0 size=N/A time=00:00:51.96 bitrate=N/A speed=7.21x    frame= 1338 fps=173 q=-0.0 size=N/A time=00:00:55.80 bitrate=N/A speed=7.22x    frame= 1434 fps=174 q=-0.0 size=N/A time=00:00:59.80 bitrate=N/A speed=7.26x    frame= 1525 fps=174 q=-0.0 size=N/A time=00:01:03.60 bitrate=N/A speed=7.26x    frame= 1610 fps=174 q=-0.0 size=N/A time=00:01:07.15 bitrate=N/A speed=7.24x    frame= 1693 fps=173 q=-0.0 size=N/A time=00:01:10.61 bitrate=N/A speed=7.21x    frame= 1779 fps=172 q=-0.0 size=N/A time=00:01:14.19 bitrate=N/A speed=7.19x    frame= 1877 fps=173 q=-0.0 size=N/A time=00:01:18.28 bitrate=N/A speed=7.23x    frame= 1969 fps=174 q=-0.0 size=N/A time=00:01:22.12 bitrate=N/A speed=7.25x    frame= 2049 fps=173 q=-0.0 size=N/A time=00:01:25.46 bitrate=N/A speed=7.21x    frame= 2134 fps=172 q=-0.0 size=N/A time=00:01:29.00 bitrate=N/A speed=7.19x    frame= 2224 fps=173 q=-0.0 size=N/A time=00:01:32.75 bitrate=N/A speed= 7.2x    frame= 2320 fps=173 q=-0.0 size=N/A time=00:01:36.76 bitrate=N/A speed=7.22x    frame= 2412 fps=173 q=-0.0 size=N/A time=00:01:40.60 bitrate=N/A speed=7.23x    frame= 2505 fps=174 q=-0.0 size=N/A time=00:01:44.47 bitrate=N/A speed=7.24x    frame= 2597 fps=174 q=-0.0 size=N/A time=00:01:48.31 bitrate=N/A speed=7.25x    frame= 2685 fps=174 q=-0.0 size=N/A time=00:01:51.98 bitrate=N/A speed=7.24x    frame= 2776 fps=174 q=-0.0 size=N/A time=00:01:55.78 bitrate=N/A speed=7.25x    frame= 2867 fps=174 q=-0.0 size=N/A time=00:01:59.57 bitrate=N/A speed=7.25x    frame= 2955 fps=174 q=-0.0 size=N/A time=00:02:03.24 bitrate=N/A speed=7.25x    frame= 3040 fps=173 q=-0.0 size=N/A time=00:02:06.79 bitrate=N/A speed=7.23x    frame= 3136 fps=174 q=-0.0 size=N/A time=00:02:10.79 bitrate=N/A speed=7.25x    frame= 3219 fps=173 q=-0.0 size=N/A time=00:02:14.25 bitrate=N/A speed=7.23x    frame= 3320 fps=174 q=-0.0 size=N/A time=00:02:18.47 bitrate=N/A speed=7.26x    frame= 3411 fps=174 q=-0.0 size=N/A time=00:02:22.26 bitrate=N/A speed=7.26x    frame= 3505 fps=174 q=-0.0 size=N/A time=00:02:26.18 bitrate=N/A speed=7.27x    frame= 3593 fps=174 q=-0.0 size=N/A time=00:02:29.85 bitrate=N/A speed=7.27x    frame= 3680 fps=174 q=-0.0 size=N/A time=00:02:33.48 bitrate=N/A speed=7.26x    frame= 3769 fps=174 q=-0.0 size=N/A time=00:02:37.19 bitrate=N/A speed=7.26x    frame= 3862 fps=174 q=-0.0 size=N/A time=00:02:41.07 bitrate=N/A speed=7.27x    frame= 3954 fps=174 q=-0.0 size=N/A time=00:02:44.91 bitrate=N/A speed=7.27x    frame= 4043 fps=174 q=-0.0 size=N/A time=00:02:48.62 bitrate=N/A speed=7.27x    frame= 4133 fps=174 q=-0.0 size=N/A time=00:02:52.38 bitrate=N/A speed=7.27x    frame= 4228 fps=175 q=-0.0 size=N/A time=00:02:56.34 bitrate=N/A speed=7.28x    frame= 4316 fps=174 q=-0.0 size=N/A time=00:03:00.01 bitrate=N/A speed=7.27x    frame= 4412 fps=175 q=-0.0 size=N/A time=00:03:04.01 bitrate=N/A speed=7.28x    frame= 4503 fps=175 q=-0.0 size=N/A time=00:03:07.81 bitrate=N/A speed=7.29x    frame= 4599 fps=175 q=-0.0 size=N/A time=00:03:11.81 bitrate=N/A speed= 7.3x    frame= 4691 fps=175 q=-0.0 size=N/A time=00:03:15.65 bitrate=N/A speed= 7.3x    frame= 4776 fps=175 q=-0.0 size=N/A time=00:03:19.19 bitrate=N/A speed=7.29x    frame= 4869 fps=175 q=-0.0 size=N/A time=00:03:23.07 bitrate=N/A speed=7.29x    frame= 4960 fps=175 q=-0.0 size=N/A time=00:03:26.87 bitrate=N/A speed= 7.3x    frame= 5051 fps=175 q=-0.0 size=N/A time=00:03:30.66 bitrate=N/A speed= 7.3x    frame= 5147 fps=175 q=-0.0 size=N/A time=00:03:34.67 bitrate=N/A speed=7.31x    frame= 5239 fps=175 q=-0.0 size=N/A time=00:03:38.50 bitrate=N/A speed=7.31x    frame= 5333 fps=175 q=-0.0 size=N/A time=00:03:42.43 bitrate=N/A speed=7.31x    frame= 5425 fps=175 q=-0.0 size=N/A time=00:03:46.26 bitrate=N/A speed=7.32x    frame= 5513 fps=175 q=-0.0 size=N/A time=00:03:49.93 bitrate=N/A speed=7.31x    frame= 5598 fps=175 q=-0.0 size=N/A time=00:03:53.48 bitrate=N/A speed=7.31x    frame= 5697 fps=175 q=-0.0 size=N/A time=00:03:57.61 bitrate=N/A speed=7.32x    frame= 5786 fps=175 q=-0.0 size=N/A time=00:04:01.32 bitrate=N/A speed=7.31x    frame= 5876 fps=175 q=-0.0 size=N/A time=00:04:05.07 bitrate=N/A speed=7.31x    frame= 5969 fps=175 q=-0.0 size=N/A time=00:04:08.95 bitrate=N/A speed=7.32x    frame= 6062 fps=175 q=-0.0 size=N/A time=00:04:12.83 bitrate=N/A speed=7.32x    frame= 6150 fps=175 q=-0.0 size=N/A time=00:04:16.50 bitrate=N/A speed=7.32x    frame= 6240 fps=175 q=-0.0 size=N/A time=00:04:20.26 bitrate=N/A speed=7.32x    frame= 6340 fps=176 q=-0.0 size=N/A time=00:04:24.43 bitrate=N/A speed=7.33x    frame= 6437 fps=176 q=-0.0 size=N/A time=00:04:28.47 bitrate=N/A speed=7.33x    frame= 6535 fps=176 q=-0.0 size=N/A time=00:04:32.56 bitrate=N/A speed=7.34x    frame= 6630 fps=176 q=-0.0 size=N/A time=00:04:36.52 bitrate=N/A speed=7.35x    frame= 6728 fps=176 q=-0.0 size=N/A time=00:04:40.61 bitrate=N/A speed=7.35x    frame= 6818 fps=176 q=-0.0 size=N/A time=00:04:44.36 bitrate=N/A speed=7.36x    frame= 6922 fps=177 q=-0.0 size=N/A time=00:04:48.70 bitrate=N/A speed=7.37x    frame= 7021 fps=177 q=-0.0 size=N/A time=00:04:52.83 bitrate=N/A speed=7.38x    frame= 7116 fps=177 q=-0.0 size=N/A time=00:04:56.79 bitrate=N/A speed=7.38x    frame= 7208 fps=177 q=-0.0 size=N/A time=00:05:00.63 bitrate=N/A speed=7.38x    frame= 7294 fps=177 q=-0.0 size=N/A time=00:05:04.22 bitrate=N/A speed=7.38x    frame= 7382 fps=177 q=-0.0 size=N/A time=00:05:07.89 bitrate=N/A speed=7.37x    frame= 7480 fps=177 q=-0.0 size=N/A time=00:05:11.97 bitrate=N/A speed=7.38x    frame= 7575 fps=177 q=-0.0 size=N/A time=00:05:15.94 bitrate=N/A speed=7.38x    frame= 7663 fps=177 q=-0.0 size=N/A time=00:05:19.61 bitrate=N/A speed=7.38x    frame= 7763 fps=177 q=-0.0 size=N/A time=00:05:23.78 bitrate=N/A speed=7.39x    frame= 7860 fps=177 q=-0.0 size=N/A time=00:05:27.82 bitrate=N/A speed=7.39x    frame= 7959 fps=177 q=-0.0 size=N/A time=00:05:31.95 bitrate=N/A speed= 7.4x    frame= 8062 fps=178 q=-0.0 size=N/A time=00:05:36.25 bitrate=N/A speed=7.41x    frame= 8160 fps=178 q=-0.0 size=N/A time=00:05:40.34 bitrate=N/A speed=7.42x    frame= 8261 fps=178 q=-0.0 size=N/A time=00:05:44.55 bitrate=N/A speed=7.43x    frame= 8362 fps=178 q=-0.0 size=N/A time=00:05:48.76 bitrate=N/A speed=7.43x    frame= 8458 fps=178 q=-0.0 size=N/A time=00:05:52.76 bitrate=N/A speed=7.44x    frame= 8548 fps=178 q=-0.0 size=N/A time=00:05:56.52 bitrate=N/A speed=7.44x    frame= 8646 fps=178 q=-0.0 size=N/A time=00:06:00.61 bitrate=N/A speed=7.44x    frame= 8723 fps=178 q=-0.0 size=N/A time=00:06:03.82 bitrate=N/A speed=7.43x    frame= 8822 fps=178 q=-0.0 size=N/A time=00:06:07.95 bitrate=N/A speed=7.43x    frame= 8922 fps=178 q=-0.0 size=N/A time=00:06:12.12 bitrate=N/A speed=7.44x    frame= 9021 fps=179 q=-0.0 size=N/A time=00:06:16.25 bitrate=N/A speed=7.45x    frame= 9111 fps=178 q=-0.0 size=N/A time=00:06:20.00 bitrate=N/A speed=7.44x    frame= 9201 fps=178 q=-0.0 size=N/A time=00:06:23.75 bitrate=N/A speed=7.44x    frame= 9294 fps=178 q=-0.0 size=N/A time=00:06:27.63 bitrate=N/A speed=7.44x    frame= 9385 fps=178 q=-0.0 size=N/A time=00:06:31.43 bitrate=N/A speed=7.44x    frame= 9482 fps=178 q=-0.0 size=N/A time=00:06:35.47 bitrate=N/A speed=7.44x    frame= 9578 fps=179 q=-0.0 size=N/A time=00:06:39.48 bitrate=N/A speed=7.45x    frame= 9676 fps=179 q=-0.0 size=N/A time=00:06:43.56 bitrate=N/A speed=7.45x    frame= 9771 fps=179 q=-0.0 size=N/A time=00:06:47.53 bitrate=N/A speed=7.45x    frame= 9863 fps=179 q=-0.0 size=N/A time=00:06:51.36 bitrate=N/A speed=7.45x    frame= 9960 fps=179 q=-0.0 size=N/A time=00:06:55.41 bitrate=N/A speed=7.46x    frame=10048 fps=179 q=-0.0 size=N/A time=00:06:59.08 bitrate=N/A speed=7.46x    frame=10152 fps=179 q=-0.0 size=N/A time=00:07:03.42 bitrate=N/A speed=7.46x    frame=10245 fps=179 q=-0.0 size=N/A time=00:07:07.30 bitrate=N/A speed=7.46x    frame=10338 fps=179 q=-0.0 size=N/A time=00:07:11.18 bitrate=N/A speed=7.46x    frame=10435 fps=179 q=-0.0 size=N/A time=00:07:15.22 bitrate=N/A speed=7.47x    frame=10529 fps=179 q=-0.0 size=N/A time=00:07:19.14 bitrate=N/A speed=7.47x    frame=10629 fps=179 q=-0.0 size=N/A time=00:07:23.31 bitrate=N/A speed=7.47x    frame=10722 fps=179 q=-0.0 size=N/A time=00:07:27.19 bitrate=N/A speed=7.48x    frame=10821 fps=179 q=-0.0 size=N/A time=00:07:31.32 bitrate=N/A speed=7.48x    frame=10919 fps=179 q=-0.0 size=N/A time=00:07:35.41 bitrate=N/A speed=7.48x    frame=11018 fps=180 q=-0.0 size=N/A time=00:07:39.54 bitrate=N/A speed=7.49x    frame=11106 fps=179 q=-0.0 size=N/A time=00:07:43.21 bitrate=N/A speed=7.49x    frame=11205 fps=180 q=-0.0 size=N/A time=00:07:47.34 bitrate=N/A speed=7.49x    frame=11304 fps=180 q=-0.0 size=N/A time=00:07:51.47 bitrate=N/A speed=7.49x    frame=11384 fps=179 q=-0.0 size=N/A time=00:07:54.80 bitrate=N/A speed=7.48x    frame=11490 fps=180 q=-0.0 size=N/A time=00:07:59.22 bitrate=N/A speed=7.49x    frame=11584 fps=180 q=-0.0 size=N/A time=00:08:03.14 bitrate=N/A speed= 7.5x    frame=11674 fps=180 q=-0.0 size=N/A time=00:08:06.90 bitrate=N/A speed=7.49x    frame=11776 fps=180 q=-0.0 size=N/A time=00:08:11.15 bitrate=N/A speed= 7.5x    frame=11867 fps=180 q=-0.0 size=N/A time=00:08:14.95 bitrate=N/A speed= 7.5x    frame=11964 fps=180 q=-0.0 size=N/A time=00:08:18.99 bitrate=N/A speed= 7.5x    frame=12050 fps=180 q=-0.0 size=N/A time=00:08:22.58 bitrate=N/A speed= 7.5x    frame=12147 fps=180 q=-0.0 size=N/A time=00:08:26.63 bitrate=N/A speed= 7.5x    frame=12241 fps=180 q=-0.0 size=N/A time=00:08:30.55 bitrate=N/A speed= 7.5x    frame=12334 fps=180 q=-0.0 size=N/A time=00:08:34.43 bitrate=N/A speed= 7.5x    frame=12422 fps=180 q=-0.0 size=N/A time=00:08:38.10 bitrate=N/A speed= 7.5x    frame=12512 fps=180 q=-0.0 size=N/A time=00:08:41.85 bitrate=N/A speed= 7.5x    frame=12603 fps=180 q=-0.0 size=N/A time=00:08:45.65 bitrate=N/A speed= 7.5x    frame=12693 fps=180 q=-0.0 size=N/A time=00:08:49.40 bitrate=N/A speed=7.49x    frame=12792 fps=180 q=-0.0 size=N/A time=00:08:53.53 bitrate=N/A speed= 7.5x    frame=12883 fps=180 q=-0.0 size=N/A time=00:08:57.32 bitrate=N/A speed= 7.5x    frame=12976 fps=180 q=-0.0 size=N/A time=00:09:01.20 bitrate=N/A speed= 7.5x    frame=13070 fps=180 q=-0.0 size=N/A time=00:09:05.12 bitrate=N/A speed= 7.5x    frame=13174 fps=180 q=-0.0 size=N/A time=00:09:09.46 bitrate=N/A speed= 7.5x    frame=13271 fps=180 q=-0.0 size=N/A time=00:09:13.51 bitrate=N/A speed= 7.5x    frame=13377 fps=180 q=-0.0 size=N/A time=00:09:17.93 bitrate=N/A speed=7.51x    frame=13479 fps=180 q=-0.0 size=N/A time=00:09:22.18 bitrate=N/A speed=7.52x    frame=13573 fps=180 q=-0.0 size=N/A time=00:09:26.10 bitrate=N/A speed=7.52x    frame=13674 fps=180 q=-0.0 size=N/A time=00:09:30.31 bitrate=N/A speed=7.52x    frame=13775 fps=180 q=-0.0 size=N/A time=00:09:34.53 bitrate=N/A speed=7.53x    frame=13867 fps=180 q=-0.0 size=N/A time=00:09:38.36 bitrate=N/A speed=7.52x    frame=13967 fps=181 q=-0.0 size=N/A time=00:09:42.54 bitrate=N/A speed=7.53x    frame=14050 fps=180 q=-0.0 size=N/A time=00:09:46.00 bitrate=N/A speed=7.52x    frame=14144 fps=180 q=-0.0 size=N/A time=00:09:49.92 bitrate=N/A speed=7.52x    frame=14241 fps=180 q=-0.0 size=N/A time=00:09:53.96 bitrate=N/A speed=7.53x    frame=14335 fps=180 q=-0.0 size=N/A time=00:09:57.88 bitrate=N/A speed=7.53x    frame=14435 fps=181 q=-0.0 size=N/A time=00:10:02.05 bitrate=N/A speed=7.53x    frame=14530 fps=181 q=-0.0 size=N/A time=00:10:06.02 bitrate=N/A speed=7.53x    frame=14630 fps=181 q=-0.0 size=N/A time=00:10:10.19 bitrate=N/A speed=7.53x    frame=14723 fps=181 q=-0.0 size=N/A time=00:10:14.07 bitrate=N/A speed=7.54x    frame=14820 fps=181 q=-0.0 size=N/A time=00:10:18.11 bitrate=N/A speed=7.54x    frame=14917 fps=181 q=-0.0 size=N/A time=00:10:22.16 bitrate=N/A speed=7.54x    frame=15003 fps=181 q=-0.0 size=N/A time=00:10:25.75 bitrate=N/A speed=7.54x    frame=15101 fps=181 q=-0.0 size=N/A time=00:10:29.83 bitrate=N/A speed=7.54x    frame=15192 fps=181 q=-0.0 size=N/A time=00:10:33.63 bitrate=N/A speed=7.54x    frame=15283 fps=181 q=-0.0 size=N/A time=00:10:37.42 bitrate=N/A speed=7.54x    frame=15388 fps=181 q=-0.0 size=N/A time=00:10:41.80 bitrate=N/A speed=7.54x    frame=15483 fps=181 q=-0.0 size=N/A time=00:10:45.77 bitrate=N/A speed=7.54x    frame=15579 fps=181 q=-0.0 size=N/A time=00:10:49.77 bitrate=N/A speed=7.54x    frame=15677 fps=181 q=-0.0 size=N/A time=00:10:53.86 bitrate=N/A speed=7.55x    frame=15770 fps=181 q=-0.0 size=N/A time=00:10:57.74 bitrate=N/A speed=7.55x    frame=15861 fps=181 q=-0.0 size=N/A time=00:11:01.53 bitrate=N/A speed=7.55x    frame=15953 fps=181 q=-0.0 size=N/A time=00:11:05.37 bitrate=N/A speed=7.54x    frame=16051 fps=181 q=-0.0 size=N/A time=00:11:09.46 bitrate=N/A speed=7.55x    frame=16142 fps=181 q=-0.0 size=N/A time=00:11:13.25 bitrate=N/A speed=7.55x    frame=16227 fps=181 q=-0.0 size=N/A time=00:11:16.80 bitrate=N/A speed=7.54x    frame=16330 fps=181 q=-0.0 size=N/A time=00:11:21.09 bitrate=N/A speed=7.55x    frame=16426 fps=181 q=-0.0 size=N/A time=00:11:25.10 bitrate=N/A speed=7.55x    frame=16510 fps=181 q=-0.0 size=N/A time=00:11:28.60 bitrate=N/A speed=7.54x    frame=16608 fps=181 q=-0.0 size=N/A time=00:11:32.69 bitrate=N/A speed=7.54x    frame=16700 fps=181 q=-0.0 size=N/A time=00:11:36.52 bitrate=N/A speed=7.54x    frame=16803 fps=181 q=-0.0 size=N/A time=00:11:40.82 bitrate=N/A speed=7.55x    frame=16895 fps=181 q=-0.0 size=N/A time=00:11:44.66 bitrate=N/A speed=7.55x    frame=16987 fps=181 q=-0.0 size=N/A time=00:11:48.49 bitrate=N/A speed=7.55x    frame=17075 fps=181 q=-0.0 size=N/A time=00:11:52.16 bitrate=N/A speed=7.54x    frame=17168 fps=181 q=-0.0 size=N/A time=00:11:56.04 bitrate=N/A speed=7.54x    frame=17265 fps=181 q=-0.0 size=N/A time=00:12:00.09 bitrate=N/A speed=7.55x    frame=17364 fps=181 q=-0.0 size=N/A time=00:12:04.22 bitrate=N/A speed=7.55x    frame=17461 fps=181 q=-0.0 size=N/A time=00:12:08.26 bitrate=N/A speed=7.55x    frame=17555 fps=181 q=-0.0 size=N/A time=00:12:12.18 bitrate=N/A speed=7.55x    frame=17644 fps=181 q=-0.0 size=N/A time=00:12:15.90 bitrate=N/A speed=7.55x    frame=17748 fps=181 q=-0.0 size=N/A time=00:12:20.23 bitrate=N/A speed=7.55x    frame=17844 fps=181 q=-0.0 size=N/A time=00:12:24.24 bitrate=N/A speed=7.55x    frame=17943 fps=181 q=-0.0 size=N/A time=00:12:28.37 bitrate=N/A speed=7.56x    frame=18042 fps=181 q=-0.0 size=N/A time=00:12:32.50 bitrate=N/A speed=7.56x    frame=18140 fps=181 q=-0.0 size=N/A time=00:12:36.58 bitrate=N/A speed=7.56x    frame=18238 fps=181 q=-0.0 size=N/A time=00:12:40.67 bitrate=N/A speed=7.56x    frame=18336 fps=181 q=-0.0 size=N/A time=00:12:44.76 bitrate=N/A speed=7.56x    frame=18434 fps=181 q=-0.0 size=N/A time=00:12:48.85 bitrate=N/A speed=7.57x    frame=18524 fps=181 q=-0.0 size=N/A time=00:12:52.60 bitrate=N/A speed=7.56x    frame=18624 fps=181 q=-0.0 size=N/A time=00:12:56.77 bitrate=N/A speed=7.57x    frame=18720 fps=181 q=-0.0 size=N/A time=00:13:00.78 bitrate=N/A speed=7.57x    frame=18824 fps=182 q=-0.0 size=N/A time=00:13:05.11 bitrate=N/A speed=7.57x    frame=18920 fps=182 q=-0.0 size=N/A time=00:13:09.12 bitrate=N/A speed=7.57x    frame=19015 fps=182 q=-0.0 size=N/A time=00:13:13.08 bitrate=N/A speed=7.57x    frame=19109 fps=182 q=-0.0 size=N/A time=00:13:17.00 bitrate=N/A speed=7.57x    frame=19204 fps=182 q=-0.0 size=N/A time=00:13:20.96 bitrate=N/A speed=7.57x    frame=19309 fps=182 q=-0.0 size=N/A time=00:13:25.34 bitrate=N/A speed=7.58x    frame=19410 fps=182 q=-0.0 size=N/A time=00:13:29.55 bitrate=N/A speed=7.58x    frame=19504 fps=182 q=-0.0 size=N/A time=00:13:33.47 bitrate=N/A speed=7.58x    frame=19601 fps=182 q=-0.0 size=N/A time=00:13:37.52 bitrate=N/A speed=7.58x    frame=19689 fps=182 q=-0.0 size=N/A time=00:13:41.19 bitrate=N/A speed=7.58x    frame=19792 fps=182 q=-0.0 size=N/A time=00:13:45.49 bitrate=N/A speed=7.58x    frame=19890 fps=182 q=-0.0 size=N/A time=00:13:49.57 bitrate=N/A speed=7.59x    frame=19986 fps=182 q=-0.0 size=N/A time=00:13:53.58 bitrate=N/A speed=7.59x    frame=20076 fps=182 q=-0.0 size=N/A time=00:13:57.33 bitrate=N/A speed=7.59x    frame=20175 fps=182 q=-0.0 size=N/A time=00:14:01.46 bitrate=N/A speed=7.59x    frame=20259 fps=182 q=-0.0 size=N/A time=00:14:04.96 bitrate=N/A speed=7.58x    frame=20355 fps=182 q=-0.0 size=N/A time=00:14:08.97 bitrate=N/A speed=7.58x    frame=20449 fps=182 q=-0.0 size=N/A time=00:14:12.89 bitrate=N/A speed=7.58x    frame=20547 fps=182 q=-0.0 size=N/A time=00:14:16.98 bitrate=N/A speed=7.59x    frame=20641 fps=182 q=-0.0 size=N/A time=00:14:20.90 bitrate=N/A speed=7.59x    frame=20736 fps=182 q=-0.0 size=N/A time=00:14:24.86 bitrate=N/A speed=7.59x    frame=20837 fps=182 q=-0.0 size=N/A time=00:14:29.07 bitrate=N/A speed=7.59x    frame=20915 fps=182 q=-0.0 size=N/A time=00:14:32.32 bitrate=N/A speed=7.58x    frame=21027 fps=182 q=-0.0 size=N/A time=00:14:37.00 bitrate=N/A speed=7.59x    frame=21117 fps=182 q=-0.0 size=N/A time=00:14:40.75 bitrate=N/A speed=7.59x    frame=21218 fps=182 q=-0.0 size=N/A time=00:14:44.96 bitrate=N/A speed=7.59x    frame=21312 fps=182 q=-0.0 size=N/A time=00:14:48.88 bitrate=N/A speed=7.59x    frame=21410 fps=182 q=-0.0 size=N/A time=00:14:52.97 bitrate=N/A speed=7.59x    frame=21506 fps=182 q=-0.0 size=N/A time=00:14:56.97 bitrate=N/A speed=7.59x    frame=21602 fps=182 q=-0.0 size=N/A time=00:15:00.98 bitrate=N/A speed=7.59x    frame=21695 fps=182 q=-0.0 size=N/A time=00:15:04.86 bitrate=N/A speed=7.59x    frame=21790 fps=182 q=-0.0 size=N/A time=00:15:08.82 bitrate=N/A speed=7.59x    frame=21884 fps=182 q=-0.0 size=N/A time=00:15:12.74 bitrate=N/A speed=7.59x    frame=21979 fps=182 q=-0.0 size=N/A time=00:15:16.70 bitrate=N/A speed= 7.6x    frame=22073 fps=182 q=-0.0 size=N/A time=00:15:20.62 bitrate=N/A speed=7.59x    frame=22167 fps=182 q=-0.0 size=N/A time=00:15:24.54 bitrate=N/A speed= 7.6x    frame=22265 fps=182 q=-0.0 size=N/A time=00:15:28.63 bitrate=N/A speed= 7.6x    frame=22366 fps=182 q=-0.0 size=N/A time=00:15:32.84 bitrate=N/A speed= 7.6x    frame=22458 fps=182 q=-0.0 size=N/A time=00:15:36.68 bitrate=N/A speed= 7.6x    frame=22565 fps=182 q=-0.0 size=N/A time=00:15:41.14 bitrate=N/A speed= 7.6x    frame=22667 fps=182 q=-0.0 size=N/A time=00:15:45.40 bitrate=N/A speed= 7.6x    frame=22757 fps=182 q=-0.0 size=N/A time=00:15:49.15 bitrate=N/A speed= 7.6x    frame=22862 fps=182 q=-0.0 size=N/A time=00:15:53.53 bitrate=N/A speed=7.61x    frame=22953 fps=182 q=-0.0 size=N/A time=00:15:57.33 bitrate=N/A speed=7.61x    frame=23051 fps=182 q=-0.0 size=N/A time=00:16:01.41 bitrate=N/A speed=7.61x    frame=23148 fps=182 q=-0.0 size=N/A time=00:16:05.46 bitrate=N/A speed=7.61x    frame=23237 fps=182 q=-0.0 size=N/A time=00:16:09.17 bitrate=N/A speed=7.61x    frame=23322 fps=182 q=-0.0 size=N/A time=00:16:12.72 bitrate=N/A speed= 7.6x    frame=23411 fps=182 q=-0.0 size=N/A time=00:16:16.43 bitrate=N/A speed= 7.6x    frame=23500 fps=182 q=-0.0 size=N/A time=00:16:20.14 bitrate=N/A speed= 7.6x    frame=23599 fps=182 q=-0.0 size=N/A time=00:16:24.27 bitrate=N/A speed= 7.6x    frame=23693 fps=182 q=-0.0 size=N/A time=00:16:28.19 bitrate=N/A speed= 7.6x    frame=23785 fps=182 q=-0.0 size=N/A time=00:16:32.03 bitrate=N/A speed= 7.6x    frame=23887 fps=182 q=-0.0 size=N/A time=00:16:36.28 bitrate=N/A speed= 7.6x    frame=23979 fps=182 q=-0.0 size=N/A time=00:16:40.12 bitrate=N/A speed= 7.6x    frame=24081 fps=182 q=-0.0 size=N/A time=00:16:44.37 bitrate=N/A speed=7.61x    frame=24179 fps=182 q=-0.0 size=N/A time=00:16:48.46 bitrate=N/A speed=7.61x    frame=24279 fps=182 q=-0.0 size=N/A time=00:16:52.63 bitrate=N/A speed=7.61x    frame=24380 fps=182 q=-0.0 size=N/A time=00:16:56.84 bitrate=N/A speed=7.61x    frame=24478 fps=183 q=-0.0 size=N/A time=00:17:00.93 bitrate=N/A speed=7.61x    frame=24573 fps=183 q=-0.0 size=N/A time=00:17:04.89 bitrate=N/A speed=7.61x    frame=24662 fps=182 q=-0.0 size=N/A time=00:17:08.61 bitrate=N/A speed=7.61x    frame=24760 fps=183 q=-0.0 size=N/A time=00:17:12.69 bitrate=N/A speed=7.61x    frame=24847 fps=182 q=-0.0 size=N/A time=00:17:16.32 bitrate=N/A speed=7.61x    frame=24951 fps=183 q=-0.0 size=N/A time=00:17:20.66 bitrate=N/A speed=7.61x    frame=25048 fps=183 q=-0.0 size=N/A time=00:17:24.71 bitrate=N/A speed=7.61x    frame=25140 fps=183 q=-0.0 size=N/A time=00:17:28.54 bitrate=N/A speed=7.61x    frame=25235 fps=183 q=-0.0 size=N/A time=00:17:32.50 bitrate=N/A speed=7.61x    frame=25340 fps=183 q=-0.0 size=N/A time=00:17:36.88 bitrate=N/A speed=7.62x    frame=25431 fps=183 q=-0.0 size=N/A time=00:17:40.68 bitrate=N/A speed=7.62x    frame=25535 fps=183 q=-0.0 size=N/A time=00:17:45.02 bitrate=N/A speed=7.62x    frame=25638 fps=183 q=-0.0 size=N/A time=00:17:49.31 bitrate=N/A speed=7.62x    frame=25734 fps=183 q=-0.0 size=N/A time=00:17:53.32 bitrate=N/A speed=7.62x    frame=25835 fps=183 q=-0.0 size=N/A time=00:17:57.53 bitrate=N/A speed=7.62x    frame=25932 fps=183 q=-0.0 size=N/A time=00:18:01.58 bitrate=N/A speed=7.63x    frame=26036 fps=183 q=-0.0 size=N/A time=00:18:05.91 bitrate=N/A speed=7.63x    frame=26137 fps=183 q=-0.0 size=N/A time=00:18:10.13 bitrate=N/A speed=7.63x    frame=26234 fps=183 q=-0.0 size=N/A time=00:18:14.17 bitrate=N/A speed=7.63x    frame=26335 fps=183 q=-0.0 size=N/A time=00:18:18.38 bitrate=N/A speed=7.63x    frame=26429 fps=183 q=-0.0 size=N/A time=00:18:22.30 bitrate=N/A speed=7.63x    frame=26513 fps=183 q=-0.0 size=N/A time=00:18:25.81 bitrate=N/A speed=7.63x    frame=26617 fps=183 q=-0.0 size=N/A time=00:18:30.15 bitrate=N/A speed=7.63x    frame=26718 fps=183 q=-0.0 size=N/A time=00:18:34.36 bitrate=N/A speed=7.63x    frame=26810 fps=183 q=-0.0 size=N/A time=00:18:38.20 bitrate=N/A speed=7.63x    frame=26909 fps=183 q=-0.0 size=N/A time=00:18:42.32 bitrate=N/A speed=7.63x    frame=26999 fps=183 q=-0.0 size=N/A time=00:18:46.08 bitrate=N/A speed=7.63x    frame=27099 fps=183 q=-0.0 size=N/A time=00:18:50.25 bitrate=N/A speed=7.63x    frame=27200 fps=183 q=-0.0 size=N/A time=00:18:54.46 bitrate=N/A speed=7.64x    frame=27277 fps=183 q=-0.0 size=N/A time=00:18:57.67 bitrate=N/A speed=7.63x    frame=27384 fps=183 q=-0.0 size=N/A time=00:19:02.14 bitrate=N/A speed=7.64x    frame=27475 fps=183 q=-0.0 size=N/A time=00:19:05.93 bitrate=N/A speed=7.63x    frame=27566 fps=183 q=-0.0 size=N/A time=00:19:09.73 bitrate=N/A speed=7.63x    frame=27649 fps=183 q=-0.0 size=N/A time=00:19:13.19 bitrate=N/A speed=7.63x    frame=27750 fps=183 q=-0.0 size=N/A time=00:19:17.40 bitrate=N/A speed=7.63x    frame=27845 fps=183 q=-0.0 size=N/A time=00:19:21.36 bitrate=N/A speed=7.63x    frame=27949 fps=183 q=-0.0 size=N/A time=00:19:25.70 bitrate=N/A speed=7.64x    frame=28051 fps=183 q=-0.0 size=N/A time=00:19:29.96 bitrate=N/A speed=7.64x    frame=28153 fps=183 q=-0.0 size=N/A time=00:19:34.21 bitrate=N/A speed=7.64x    frame=28251 fps=183 q=-0.0 size=N/A time=00:19:38.30 bitrate=N/A speed=7.64x    frame=28339 fps=183 q=-0.0 size=N/A time=00:19:41.97 bitrate=N/A speed=7.64x    frame=28442 fps=183 q=-0.0 size=N/A time=00:19:46.26 bitrate=N/A speed=7.64x    frame=28535 fps=183 q=-0.0 size=N/A time=00:19:50.14 bitrate=N/A speed=7.64x    frame=28631 fps=183 q=-0.0 size=N/A time=00:19:54.15 bitrate=N/A speed=7.64x    frame=28725 fps=183 q=-0.0 size=N/A time=00:19:58.07 bitrate=N/A speed=7.64x    frame=28818 fps=183 q=-0.0 size=N/A time=00:20:01.95 bitrate=N/A speed=7.64x    frame=28918 fps=183 q=-0.0 size=N/A time=00:20:06.12 bitrate=N/A speed=7.64x    frame=29014 fps=183 q=-0.0 size=N/A time=00:20:10.12 bitrate=N/A speed=7.64x    frame=29114 fps=183 q=-0.0 size=N/A time=00:20:14.29 bitrate=N/A speed=7.64x    frame=29217 fps=183 q=-0.0 size=N/A time=00:20:18.59 bitrate=N/A speed=7.65x    frame=29312 fps=183 q=-0.0 size=N/A time=00:20:22.55 bitrate=N/A speed=7.65x    frame=29412 fps=183 q=-0.0 size=N/A time=00:20:26.72 bitrate=N/A speed=7.65x    frame=29510 fps=183 q=-0.0 size=N/A time=00:20:30.81 bitrate=N/A speed=7.65x    frame=29604 fps=183 q=-0.0 size=N/A time=00:20:34.73 bitrate=N/A speed=7.65x    frame=29697 fps=183 q=-0.0 size=N/A time=00:20:38.61 bitrate=N/A speed=7.65x    frame=29808 fps=183 q=-0.0 size=N/A time=00:20:43.24 bitrate=N/A speed=7.65x    frame=29907 fps=183 q=-0.0 size=N/A time=00:20:47.37 bitrate=N/A speed=7.65x    frame=30009 fps=184 q=-0.0 size=N/A time=00:20:51.62 bitrate=N/A speed=7.65x    frame=30108 fps=184 q=-0.0 size=N/A time=00:20:55.75 bitrate=N/A speed=7.66x    frame=30206 fps=184 q=-0.0 size=N/A time=00:20:59.84 bitrate=N/A speed=7.66x    frame=30300 fps=184 q=-0.0 size=N/A time=00:21:03.76 bitrate=N/A speed=7.66x    frame=30399 fps=184 q=-0.0 size=N/A time=00:21:07.89 bitrate=N/A speed=7.66x    frame=30495 fps=184 q=-0.0 size=N/A time=00:21:11.89 bitrate=N/A speed=7.66x    frame=30598 fps=184 q=-0.0 size=N/A time=00:21:16.19 bitrate=N/A speed=7.66x    frame=30696 fps=184 q=-0.0 size=N/A time=00:21:20.27 bitrate=N/A speed=7.66x    frame=30791 fps=184 q=-0.0 size=N/A time=00:21:24.24 bitrate=N/A speed=7.66x    frame=30895 fps=184 q=-0.0 size=N/A time=00:21:28.57 bitrate=N/A speed=7.66x    frame=30997 fps=184 q=-0.0 size=N/A time=00:21:32.83 bitrate=N/A speed=7.66x    frame=31091 fps=184 q=-0.0 size=N/A time=00:21:36.75 bitrate=N/A speed=7.66x    frame=31200 fps=184 q=-0.0 size=N/A time=00:21:41.30 bitrate=N/A speed=7.67x    frame=31299 fps=184 q=-0.0 size=N/A time=00:21:45.42 bitrate=N/A speed=7.67x    frame=31396 fps=184 q=-0.0 size=N/A time=00:21:49.47 bitrate=N/A speed=7.67x    frame=31497 fps=184 q=-0.0 size=N/A time=00:21:53.68 bitrate=N/A speed=7.67x    frame=31598 fps=184 q=-0.0 size=N/A time=00:21:57.89 bitrate=N/A speed=7.67x    frame=31694 fps=184 q=-0.0 size=N/A time=00:22:01.90 bitrate=N/A speed=7.67x    frame=31800 fps=184 q=-0.0 size=N/A time=00:22:06.32 bitrate=N/A speed=7.68x    frame=31892 fps=184 q=-0.0 size=N/A time=00:22:10.16 bitrate=N/A speed=7.67x    frame=31993 fps=184 q=-0.0 size=N/A time=00:22:14.37 bitrate=N/A speed=7.68x    frame=32089 fps=184 q=-0.0 size=N/A time=00:22:18.37 bitrate=N/A speed=7.68x    frame=32199 fps=184 q=-0.0 size=N/A time=00:22:22.96 bitrate=N/A speed=7.68x    frame=32299 fps=184 q=-0.0 size=N/A time=00:22:27.13 bitrate=N/A speed=7.68x    frame=32392 fps=184 q=-0.0 size=N/A time=00:22:31.01 bitrate=N/A speed=7.68x    frame=32496 fps=184 q=-0.0 size=N/A time=00:22:35.35 bitrate=N/A speed=7.68x    frame=32589 fps=184 q=-0.0 size=N/A time=00:22:39.23 bitrate=N/A speed=7.68x    frame=32689 fps=184 q=-0.0 size=N/A time=00:22:43.40 bitrate=N/A speed=7.68x    frame=32787 fps=184 q=-0.0 size=N/A time=00:22:47.49 bitrate=N/A speed=7.68x    frame=32880 fps=184 q=-0.0 size=N/A time=00:22:51.37 bitrate=N/A speed=7.68x    frame=32980 fps=184 q=-0.0 size=N/A time=00:22:55.54 bitrate=N/A speed=7.68x    frame=33060 fps=184 q=-0.0 size=N/A time=00:22:58.87 bitrate=N/A speed=7.68x    frame=33165 fps=184 q=-0.0 size=N/A time=00:23:03.25 bitrate=N/A speed=7.68x    frame=33255 fps=184 q=-0.0 size=N/A time=00:23:07.01 bitrate=N/A speed=7.68x    frame=33340 fps=184 q=-0.0 size=N/A time=00:23:10.55 bitrate=N/A speed=7.68x    frame=33434 fps=184 q=-0.0 size=N/A time=00:23:14.47 bitrate=N/A speed=7.68x    frame=33528 fps=184 q=-0.0 size=N/A time=00:23:18.39 bitrate=N/A speed=7.68x    frame=33617 fps=184 q=-0.0 size=N/A time=00:23:22.10 bitrate=N/A speed=7.68x    frame=33713 fps=184 q=-0.0 size=N/A time=00:23:26.11 bitrate=N/A speed=7.68x    frame=33812 fps=184 q=-0.0 size=N/A time=00:23:30.24 bitrate=N/A speed=7.68x    frame=33911 fps=184 q=-0.0 size=N/A time=00:23:34.37 bitrate=N/A speed=7.68x    frame=34016 fps=184 q=-0.0 size=N/A time=00:23:38.75 bitrate=N/A speed=7.68x    [Parsed_psnr_10 @ 000001c54b5b8200] PSNR y:40.787152 u:48.891670 v:47.728849 average:42.176845 min:9.005120 max:inf
[out#0/null @ 000001c54b74bb00] video:14630KiB audio:266472KiB subtitle:0KiB other streams:0KiB global headers:0KiB muxing overhead: unknown
frame=34049 fps=184 q=-0.0 Lsize=N/A time=00:23:40.12 bitrate=N/A speed=7.68x    
